{
    "asset" : {
        "generator" : "Khronos glTF Blender I/O v1.7.33",
        "version" : "2.0"
    },
    "scene" : 0,
    "scenes" : [
        {
            "name" : "Scene",
            "nodes" : [
                0,
                1,
                2,
                3,
                4
            ]
        }
    ],
    "nodes" : [
        {
            "name" : "EyeLgrp",
            "rotation" : [
                0.7071068286895752,
                0,
                0,
                0.7071067094802856
            ],
            "scale" : [
                0.09011505544185638,
                0.09011505544185638,
                0.09011505544185638
            ]
        },
        {
            "name" : "EyeRgrp",
            "rotation" : [
                0.7071068286895752,
                0,
                0,
                0.7071067094802856
            ],
            "scale" : [
                0.09011505544185638,
                0.09011505544185638,
                0.09011505544185638
            ]
        },
        {
            "mesh" : 0,
            "name" : "Herodog",
            "scale" : [
                0.17255452275276184,
                0.17255452275276184,
                0.17255452275276184
            ],
            "translation" : [
                0.03315901756286621,
                0.20004718005657196,
                0.031234702095389366
            ]
        },
        {
            "mesh" : 1,
            "name" : "Collar",
            "scale" : [
                0.17255452275276184,
                0.17255452275276184,
                0.17255452275276184
            ],
            "translation" : [
                0.033503081649541855,
                14.168571472167969,
                -0.5077793598175049
            ]
        },
        {
            "mesh" : 2,
            "name" : "Cloak",
            "scale" : [
                0.17255452275276184,
                0.17255452275276184,
                0.17255452275276184
            ],
            "translation" : [
                0.029393982142210007,
                14.626640319824219,
                -2.4479355812072754
            ]
        }
    ],
    "materials" : [
        {
            "doubleSided" : true,
            "name" : "Herodog",
            "normalTexture" : {
                "index" : 0
            },
            "pbrMetallicRoughness" : {
                "baseColorTexture" : {
                    "index" : 1
                },
                "metallicFactor" : 0,
                "roughnessFactor" : 0.5527864098548889
            }
        },
        {
            "doubleSided" : true,
            "name" : "White",
            "pbrMetallicRoughness" : {
                "baseColorFactor" : [
                    0.8627451658248901,
                    0.8627451658248901,
                    0.8627451658248901,
                    1
                ],
                "metallicFactor" : 0,
                "roughnessFactor" : 0.5527864098548889
            }
        }
    ],
    "meshes" : [
        {
            "name" : "Mesh.006",
            "primitives" : [
                {
                    "attributes" : {
                        "POSITION" : 0,
                        "NORMAL" : 1,
                        "TEXCOORD_0" : 2
                    },
                    "indices" : 3,
                    "material" : 0
                },
                {
                    "attributes" : {
                        "POSITION" : 4,
                        "NORMAL" : 5,
                        "TEXCOORD_0" : 6
                    },
                    "indices" : 7,
                    "material" : 1
                }
            ]
        },
        {
            "name" : "Mesh.007",
            "primitives" : [
                {
                    "attributes" : {
                        "POSITION" : 8,
                        "NORMAL" : 9,
                        "TEXCOORD_0" : 10
                    },
                    "indices" : 11,
                    "material" : 0
                }
            ]
        },
        {
            "name" : "Mesh.010",
            "primitives" : [
                {
                    "attributes" : {
                        "POSITION" : 12,
                        "NORMAL" : 13,
                        "TEXCOORD_0" : 14
                    },
                    "indices" : 15,
                    "material" : 0
                }
            ]
        }
    ],
    "textures" : [
        {
            "sampler" : 0,
            "source" : 0
        },
        {
            "sampler" : 0,
            "source" : 1
        }
    ],
    "images" : [
        {
            "bufferView" : 4,
            "mimeType" : "image/png",
            "name" : "Map #7"
        },
        {
            "bufferView" : 5,
            "mimeType" : "image/png",
            "name" : "Map #6"
        }
    ],
    "accessors" : [
        {
            "bufferView" : 0,
            "componentType" : 5126,
            "count" : 3636,
            "max" : [
                52.753074645996094,
                129.92030334472656,
                21.233367919921875
            ],
            "min" : [
                -52.771339416503906,
                -0.2946186065673828,
                -17.665372848510742
            ],
            "type" : "VEC3"
        },
        {
            "bufferView" : 1,
            "componentType" : 5126,
            "count" : 3636,
            "type" : "VEC3"
        },
        {
            "bufferView" : 2,
            "componentType" : 5126,
            "count" : 3636,
            "type" : "VEC2"
        },
        {
            "bufferView" : 3,
            "componentType" : 5123,
            "count" : 18258,
            "type" : "SCALAR"
        },
        {
            "bufferView" : 6,
            "componentType" : 5126,
            "count" : 68,
            "max" : [
                10.283710479736328,
                98.87852478027344,
                14.615882873535156
            ],
            "min" : [
                -10.280948638916016,
                88.32891845703125,
                1.0016685724258423
            ],
            "type" : "VEC3"
        },
        {
            "bufferView" : 7,
            "componentType" : 5126,
            "count" : 68,
            "type" : "VEC3"
        },
        {
            "bufferView" : 8,
            "componentType" : 5126,
            "count" : 68,
            "type" : "VEC2"
        },
        {
            "bufferView" : 9,
            "componentType" : 5123,
            "count" : 192,
            "type" : "SCALAR"
        },
        {
            "bufferView" : 10,
            "componentType" : 5126,
            "count" : 152,
            "max" : [
                14.319125175476074,
                4.9835968017578125,
                14.493751525878906
            ],
            "min" : [
                -14.319125175476074,
                -4.9835968017578125,
                -14.493751525878906
            ],
            "type" : "VEC3"
        },
        {
            "bufferView" : 11,
            "componentType" : 5126,
            "count" : 152,
            "type" : "VEC3"
        },
        {
            "bufferView" : 12,
            "componentType" : 5126,
            "count" : 152,
            "type" : "VEC2"
        },
        {
            "bufferView" : 13,
            "componentType" : 5123,
            "count" : 756,
            "type" : "SCALAR"
        },
        {
            "bufferView" : 14,
            "componentType" : 5126,
            "count" : 270,
            "max" : [
                33.63231658935547,
                0.7767105102539062,
                2.332308769226074
            ],
            "min" : [
                -33.63231658935547,
                -75.49549865722656,
                -21.21856689453125
            ],
            "type" : "VEC3"
        },
        {
            "bufferView" : 15,
            "componentType" : 5126,
            "count" : 270,
            "type" : "VEC3"
        },
        {
            "bufferView" : 16,
            "componentType" : 5126,
            "count" : 270,
            "type" : "VEC2"
        },
        {
            "bufferView" : 17,
            "componentType" : 5123,
            "count" : 1008,
            "type" : "SCALAR"
        }
    ],
    "bufferViews" : [
        {
            "buffer" : 0,
            "byteLength" : 43632,
            "byteOffset" : 0
        },
        {
            "buffer" : 0,
            "byteLength" : 43632,
            "byteOffset" : 43632
        },
        {
            "buffer" : 0,
            "byteLength" : 29088,
            "byteOffset" : 87264
        },
        {
            "buffer" : 0,
            "byteLength" : 36516,
            "byteOffset" : 116352
        },
        {
            "buffer" : 0,
            "byteLength" : 286359,
            "byteOffset" : 152868
        },
        {
            "buffer" : 0,
            "byteLength" : 999643,
            "byteOffset" : 439228
        },
        {
            "buffer" : 0,
            "byteLength" : 816,
            "byteOffset" : 1438872
        },
        {
            "buffer" : 0,
            "byteLength" : 816,
            "byteOffset" : 1439688
        },
        {
            "buffer" : 0,
            "byteLength" : 544,
            "byteOffset" : 1440504
        },
        {
            "buffer" : 0,
            "byteLength" : 384,
            "byteOffset" : 1441048
        },
        {
            "buffer" : 0,
            "byteLength" : 1824,
            "byteOffset" : 1441432
        },
        {
            "buffer" : 0,
            "byteLength" : 1824,
            "byteOffset" : 1443256
        },
        {
            "buffer" : 0,
            "byteLength" : 1216,
            "byteOffset" : 1445080
        },
        {
            "buffer" : 0,
            "byteLength" : 1512,
            "byteOffset" : 1446296
        },
        {
            "buffer" : 0,
            "byteLength" : 3240,
            "byteOffset" : 1447808
        },
        {
            "buffer" : 0,
            "byteLength" : 3240,
            "byteOffset" : 1451048
        },
        {
            "buffer" : 0,
            "byteLength" : 2160,
            "byteOffset" : 1454288
        },
        {
            "buffer" : 0,
            "byteLength" : 2016,
            "byteOffset" : 1456448
        }
    ],
    "samplers" : [
        {
            "magFilter" : 9729,
            "minFilter" : 9987
        }
    ],
    "buffers" : [
        {
            "byteLength" : 1458464,
            "uri" : "data:application/octet-stream;base64,"
        }
    ]
}
